# xmcd CD database file
#
# Track frame offsets:
#	150
#	23817
#	38254
#	53758
#	73426
#	89420
#	112855
#	129265
#	147753
#	163372
#	189683
#	208111
#	237140
#	266862
#
# Disc length: 3796 seconds
#
# Revision: 0
# Processed by: cddbd v1.5.2PL0 Copyright (c) Steve Scherf et al.
# Submitted via: CDex 1.51
#
DISCID=c70ed20e
DTITLE=Various Artist - jazzadelic high fidelic jazz vibes 07.4
DYEAR=2007
DGENRE=Jazz
TTITLE0=four80east - five by five
TTITLE1=ben westbeech - pusherman
TTITLE2=ferdinand jozef george - madam boogaloo
TTITLE3=pink martini - cante e dance
TTITLE4=zeep - agua
TTITLE5=simphiwe dana - bantu biko street
TTITLE6=kassin+2 - ya ya ya
TTITLE7=bole 2 harlem - bole 2 harlem
TTITLE8=forro in the dark - asa branca
TTITLE9=soil and "pimp" sessions - hype of gold
TTITLE10=monsieur dubois - the soulintegration
TTITLE11=surfcake - cityjungle
TTITLE12=the houdini's - hybrid
TTITLE13=e.s.t. - goldwrap
EXTD=YEAR: 2007
EXTT0=
EXTT1=
EXTT2=
EXTT3=
EXTT4=
EXTT5=
EXTT6=
EXTT7=
EXTT8=
EXTT9=
EXTT10=
EXTT11=
EXTT12=
EXTT13=
PLAYORDER=
